<?xml version="1.0" encoding="utf-8"?>
<!-- Generator: Adobe Illustrator 21.0.0, SVG Export Plug-In . SVG Version: 6.00 Build 0)  -->
<svg version="1.1" id="图层_1" xmlns="http://www.w3.org/2000/svg" xmlns:xlink="http://www.w3.org/1999/xlink" x="0px" y="0px"
	 viewBox="0 0 280 144.6" style="enable-background:new 0 0 280 144.6;" xml:space="preserve">
<style type="text/css">
	.st0{fill:#FFFFCC;stroke:#512202;stroke-width:2;stroke-miterlimit:10;}
</style>
<title>资源 1</title>
<g id="图层_2">
	<g id="图层_1-2">
		<path class="st0" d="M38,69v23l177-47V19h-52C163,19,38,68,38,69z"/>
		<path class="st0" d="M47,42v18c29-12,116-46,116-46h27V0h-53L47,42z"/>
		<path class="st0" d="M22,103l17,22l0,0c-11,3-24,9-39,17c141-34,173,44,280-32c-21.2,6.7-43,11.7-65,15l36-83L22,103z"/>
		<polygon class="st0" points="63,31 63,7 113,7 		"/>
	</g>
</g>
</svg>
